HIERARCHY
ROOT Hips
{
  OFFSET 0 0 0
  CHANNELS 6 Xposition Yposition Zposition Zrotation Yrotation Xrotation
  JOINT LeftThigh
  {
    OFFSET 8.409438 0 -5.917753
    CHANNELS 3 Zrotation Yrotation Xrotation
    JOINT LeftLeg
    {
      OFFSET 0 0 -42.358652
      CHANNELS 3 Zrotation Yrotation Xrotation
      JOINT LeftFoot
      {
        OFFSET 0 0 -39.357303
        CHANNELS 3 Zrotation Yrotation Xrotation
      }
    }
  }
  JOINT RightThigh
  {
    OFFSET -8.409438 0 -5.917753
    CHANNELS 3 Zrotation Yrotation Xrotation
    JOINT RightLeg
    {
      OFFSET 0 0 -42.358652
      CHANNELS 3 Zrotation Yrotation Xrotation
      JOINT RightFoot
      {
        OFFSET 0 0 -39.357303
        CHANNELS 3 Zrotation Yrotation Xrotation
      }
    }
  }
  JOINT SpineLow
  {
    OFFSET 0 0 4.719101
    CHANNELS 3 Zrotation Yrotation Xrotation
    JOINT SpineMid
    {
      OFFSET 0 0 12.899191
      CHANNELS 3 Zrotation Yrotation Xrotation
      JOINT Chest
      {
        OFFSET 0 0 12.899191
        CHANNELS 3 Zrotation Yrotation Xrotation
        JOINT LeftShoulder
        {
          OFFSET 7.550562 1.41573 9.438202
          CHANNELS 3 Zrotation Yrotation Xrotation
          JOINT LeftArm
          {
            OFFSET 9.155056 0 4.247191
            CHANNELS 3 Zrotation Yrotation Xrotation
            JOINT LeftForearm
            {
              OFFSET 0 0 25.771955
              CHANNELS 3 Zrotation Yrotation Xrotation
              JOINT LeftHand
              {
                OFFSET 0 0 25.197169
                CHANNELS 3 Zrotation Yrotation Xrotation
              }
            }
          }
        }
        JOINT RightShoulder
        {
          OFFSET -7.550562 1.41573 9.438202
          CHANNELS 3 Zrotation Yrotation Xrotation
          JOINT RightArm
          {
            OFFSET -9.155056 0 4.247191
            CHANNELS 3 Zrotation Yrotation Xrotation
            JOINT RightForearm
            {
              OFFSET 0 0 -25.771955
              CHANNELS 3 Zrotation Yrotation Xrotation
              JOINT RightHand
              {
                OFFSET 0 0 -25.197169
                CHANNELS 3 Zrotation Yrotation Xrotation
              }
            }
          }
        }
        JOINT Neck
        {
          OFFSET 0 0 15.101124
          CHANNELS 3 Zrotation Yrotation Xrotation
          JOINT Head
          {
            OFFSET 0 0 11.325843
            CHANNELS 3 Zrotation Yrotation Xrotation
            End Site
            {
              OFFSET 0 0 14.157303
            }
          }
        }
      }
    }
  }
}
MOTION
Frames: 8
Frame Time: 0.01
0.0  101.685394  0.0  -3.14037  -13.393805  -105.22949  33.404645  -27.559314  2.999955  -1.341466  5.359377  33.465418  11.854756  3.599793  6.298826  -8.481493  9.25701  -5.990036  9.691856  1.26224  26.466365  11.594208  4.09349  -1.037316  -0.707623  -1.564902  2.400379  -2.090018  -4.201936  6.614628  -2.090018  -4.201936  6.614628  -15.138846  26.236902  0.338876  92.846732  79.978758  158.257562  -35.048077  17.606944  99.094093  71.277222  -5.304833  -33.68687  26.324851  -5.272242  30.715234  50.017665  68.87936  -41.293979  -16.985347  -40.029335  -89.398741  71.046131  4.286193  -6.134696  11.004657  2.005848  -1.740709  8.258441  1.473621  -1.342052  
0.0  101.685394  0.0  -3.188087  -14.25404  -105.205832  33.726205  -27.641255  2.653796  -1.054429  5.227072  34.259198  11.84687  3.646846  6.291105  -7.860614  8.876463  -6.265556  9.998902  1.25938  26.978204  11.487606  4.187995  -1.052548  -0.664507  -1.597558  2.432973  -1.977611  -4.294385  6.702378  -1.977611  -4.294385  6.702378  -15.381227  26.074557  0.525099  94.156854  79.820257  159.699577  -35.270731  17.534006  99.152097  70.045184  -6.133636  -34.079363  25.929687  -5.411762  30.666885  49.984613  67.93216  -41.248898  -16.329841  -39.266693  -89.35267  70.716847  3.99544  -5.975221  11.198866  2.016249  -1.766015  8.40419  1.480428  -1.361884  
0.0  101.685394  0.0  -3.258832  -15.030088  -105.245062  34.168026  -27.80955  2.349198  -0.700631  5.026799  35.108062  11.695628  3.686984  6.20242  -7.259265  8.551872  -6.502653  10.051161  1.342277  27.539805  11.374355  4.233521  -1.100301  -0.637384  -1.635062  2.468686  -1.909729  -4.398433  6.799793  -1.909729  -4.398432  6.799792  -15.108008  26.125621  0.97234  95.469643  79.727444  161.367675  -35.26317  17.056631  99.581755  69.818782  -6.092828  -33.807413  25.541846  -5.455284  30.614953  49.967467  67.300431  -41.213274  -15.387749  -37.544414  -89.801942  69.00171  3.708839  -4.806474  11.447377  2.021593  -1.73775  8.590471  1.484274  -1.341623  
0.0  101.685394  0.0  -3.218926  -15.649541  -105.306514  34.644366  -27.909972  2.098456  -0.740507  5.01973  35.714341  11.635603  3.739416  6.141459  -6.569578  8.415248  -6.78943  9.895552  1.344596  28.211565  11.428247  4.348789  -1.125311  -0.604991  -1.651879  2.504203  -1.825321  -4.446639  6.895488  -1.825321  -4.446639  6.895488  -15.07784  26.190122  1.394291  97.21309  79.73707  163.224595  -35.321772  15.869635  100.329792  69.853968  -5.112231  -33.326003  25.252085  -5.525224  30.54793  49.978521  67.180069  -41.158723  -15.340697  -35.727218  -89.304437  66.820279  3.898673  -4.134194  11.687663  2.049827  -1.718146  8.770655  1.505177  -1.328272  
0.0  101.685394  0.0  -3.173935  -16.253717  -105.341892  35.369061  -28.069844  1.7872  -0.247383  4.689335  36.724368  10.654187  3.803687  5.627456  -5.827247  8.304879  -7.172736  9.514054  1.412165  28.967941  11.495321  4.436158  -1.158336  -0.572588  -1.670596  2.505175  -1.738809  -4.501094  6.896662  -1.738809  -4.501094  6.896662  -14.733651  26.50751  2.114457  99.339192  79.788219  164.966312  -35.166084  14.313919  101.649676  69.567177  -3.73087  -32.90335  25.027694  -5.610164  30.530732  50.394177  67.210826  -40.759633  -15.888883  -33.940462  -88.06078  64.4973  4.588904  -4.278341  11.962306  2.051494  -1.607353  8.976238  1.507854  -1.24613  
0.0  101.685394  0.0  -3.045985  -16.572164  -105.290796  36.020036  -28.079183  1.446684  -0.721172  4.969809  37.10469  10.524523  3.828011  5.480654  -5.167029  8.278119  -7.646684  9.256578  1.454947  29.778512  11.489399  4.532638  -1.171267  -0.522238  -1.672644  2.497091  -1.600833  -4.512164  6.871214  -1.600833  -4.512164  6.871214  -14.835713  26.790236  2.667542  100.19984  80.005241  165.917708  -35.264167  12.539596  102.317671  69.201991  -2.381396  -32.869829  24.596043  -5.646945  30.343199  50.60642  67.273166  -40.401201  -16.484866  -32.295498  -86.982654  62.212581  5.242655  -4.861983  12.076774  2.059802  -1.584855  9.062016  1.514244  -1.22981  
0.0  101.685394  0.0  -2.919464  -16.698916  -105.24397  36.555413  -28.056701  1.131239  -1.116475  5.273065  37.504071  10.477751  3.856936  5.345256  -4.68734  8.228917  -8.115403  8.814479  1.592846  30.534328  11.777551  4.713116  -1.096984  -0.46992  -1.663807  2.481545  -1.455812  -4.493867  6.824851  -1.455812  -4.493866  6.824851  -14.801839  27.137464  3.281235  99.607221  80.216388  165.600179  -35.359064  11.569123  102.566342  69.125414  -1.781601  -32.993946  24.025604  -5.643551  30.106544  50.521729  67.303579  -40.273951  -16.646392  -31.307441  -86.910893  60.796836  5.331559  -5.07728  12.102584  2.03097  -1.579076  9.081305  1.49266  -1.224995  
0.0  101.685394  0.0  -2.777163  -16.571612  -105.202217  37.008052  -28.068076  0.807314  -1.70494  5.772447  37.742927  10.368065  3.861753  5.160786  -4.201973  8.241585  -8.449892  8.715586  1.652415  31.262394  11.451007  4.792273  -1.11922  -0.421583  -1.638002  2.456713  -1.319291  -4.428967  6.752872  -1.319291  -4.428967  6.752873  -15.140222  27.334513  3.709936  99.191041  80.39763  165.226441  -35.450019  11.724368  102.504348  69.276172  -1.793645  -33.159592  23.370089  -5.644621  29.856017  50.099677  67.313233  -40.447058  -16.233724  -30.919299  -87.405929  60.603702  5.236184  -4.819022  12.043845  1.984729  -1.566471  9.037136  1.458357  -1.21443  
